<svg width="83" height="16" viewBox="0 0 83 16" fill="none" xmlns="http://www.w3.org/2000/svg">
<g clip-path="url(#clip0_119_2)">
<path fill-rule="evenodd" clip-rule="evenodd" d="M5.4393 5.27903C3.86104 6.78965 3.86104 9.23885 5.4393 10.7495C7.01758 12.2601 9.57647 12.2601 11.1548 10.7495L14.1629 13.6286C10.9232 16.7294 5.67079 16.7294 2.43118 13.6286C-0.808441 10.5279 -0.808441 5.50059 2.43118 2.39987C5.67079 -0.700876 10.9232 -0.700876 14.1629 2.39987L11.1548 5.27903C9.57647 3.76843 7.01758 3.76843 5.4393 5.27903Z" fill="white"/>
<path d="M23.5862 11.9212L20.239 8.37139V11.9212H19.1777V4.14069H20.239V7.74627L23.5979 4.14069H24.9391L21.2537 8.0365L24.9741 11.9212H23.5862ZM32.3407 8.62813C32.3407 8.82162 32.329 9.02627 32.3057 9.24208H27.1974C27.2363 9.84488 27.4501 10.3174 27.8389 10.6598C28.2354 10.9946 28.7136 11.1621 29.2734 11.1621C29.7321 11.1621 30.1131 11.0616 30.4163 10.8607C30.7273 10.6523 30.945 10.377 31.0694 10.0346H32.2124C32.0413 10.6225 31.6992 11.1026 31.1861 11.4746C30.6729 11.8393 30.0353 12.0216 29.2734 12.0216C28.6669 12.0216 28.1226 11.8914 27.6406 11.6309C27.1663 11.3705 26.7931 11.0021 26.521 10.5258C26.2488 10.0421 26.1128 9.48394 26.1128 8.85139C26.1128 8.21883 26.2449 7.66441 26.5093 7.18813C26.7737 6.71185 27.143 6.3472 27.6173 6.09418C28.0993 5.83371 28.6514 5.70348 29.2734 5.70348C29.8798 5.70348 30.4163 5.82999 30.8828 6.08301C31.3493 6.33604 31.707 6.68581 31.9558 7.13232C32.2124 7.57139 32.3407 8.06999 32.3407 8.62813ZM31.2444 8.41604C31.2444 8.02906 31.155 7.6979 30.9761 7.42255C30.7973 7.13976 30.5524 6.92767 30.2414 6.78627C29.9381 6.63743 29.5999 6.56301 29.2267 6.56301C28.6902 6.56301 28.2315 6.72674 27.8505 7.05418C27.4773 7.38162 27.2635 7.83557 27.2091 8.41604H31.2444ZM39.5963 5.80394L35.7476 14.8012H34.6513L35.9108 11.8542L33.3334 5.80394H34.5113L36.5173 10.7602L38.5 5.80394H39.5963ZM43.7305 11.9993C43.1629 11.9993 42.6498 11.9063 42.191 11.7202C41.7401 11.5342 41.3824 11.2663 41.1181 10.9165C40.8537 10.5667 40.7177 10.1537 40.7099 9.67743H42.4593C42.4826 9.99743 42.5992 10.2505 42.8092 10.4365C43.0269 10.6225 43.3223 10.7156 43.6955 10.7156C44.0765 10.7156 44.3759 10.63 44.5936 10.4588C44.8113 10.2802 44.9201 10.0495 44.9201 9.76674C44.9201 9.53604 44.8463 9.34627 44.6985 9.19743C44.5508 9.0486 44.3642 8.93325 44.1387 8.85139C43.921 8.76208 43.6178 8.66534 43.229 8.56115C42.7003 8.41232 42.2688 8.2672 41.9345 8.12581C41.6079 7.97697 41.3241 7.75743 41.0831 7.4672C40.8498 7.16953 40.7332 6.77511 40.7332 6.28394C40.7332 5.82255 40.8537 5.42069 41.0947 5.07836C41.3358 4.73604 41.674 4.47557 42.1094 4.29697C42.5448 4.11092 43.0424 4.0179 43.6022 4.0179C44.442 4.0179 45.1223 4.21511 45.6432 4.60953C46.1719 4.9965 46.4635 5.53976 46.5179 6.23929H44.7219C44.7063 5.97139 44.5858 5.75185 44.3603 5.58069C44.1426 5.40208 43.851 5.31278 43.4856 5.31278C43.1668 5.31278 42.9103 5.39092 42.7159 5.5472C42.5293 5.70348 42.436 5.93046 42.436 6.22813C42.436 6.4365 42.5059 6.61139 42.6459 6.75278C42.7936 6.88674 42.9725 6.99836 43.1824 7.08767C43.4001 7.16953 43.7033 7.26627 44.0921 7.3779C44.6208 7.52674 45.0523 7.67557 45.3866 7.82441C45.721 7.97325 46.0087 8.1965 46.2497 8.49418C46.4907 8.79185 46.6112 9.18255 46.6112 9.66627C46.6112 10.083 46.4985 10.47 46.273 10.8272C46.0475 11.1844 45.7171 11.4709 45.2817 11.6867C44.8463 11.8951 44.3292 11.9993 43.7305 11.9993ZM54.3829 8.69511C54.3829 8.91836 54.3674 9.11929 54.3363 9.2979H49.6128C49.6517 9.74441 49.815 10.0942 50.1027 10.3472C50.3904 10.6002 50.7441 10.7267 51.164 10.7267C51.7705 10.7267 52.202 10.4774 52.4586 9.97883H54.2196C54.033 10.5742 53.6754 11.0653 53.1467 11.4523C52.6179 11.8319 51.9687 12.0216 51.199 12.0216C50.577 12.0216 50.0172 11.8914 49.5195 11.6309C49.0297 11.363 48.6448 10.9872 48.3649 10.5035C48.0928 10.0198 47.9567 9.46162 47.9567 8.82906C47.9567 8.18906 48.0928 7.6272 48.3649 7.14348C48.6371 6.65976 49.018 6.28767 49.5079 6.0272C49.9977 5.76674 50.5614 5.6365 51.199 5.6365C51.8132 5.6365 52.3614 5.76301 52.8434 6.01604C53.3333 6.26906 53.7104 6.62999 53.9747 7.09883C54.2468 7.56022 54.3829 8.09232 54.3829 8.69511ZM52.6918 8.2486C52.684 7.84674 52.5324 7.52674 52.237 7.2886C51.9415 7.04301 51.58 6.92022 51.1523 6.92022C50.748 6.92022 50.4059 7.03929 50.126 7.27743C49.8539 7.50813 49.6867 7.83185 49.6245 8.2486H52.6918ZM55.5049 8.82906C55.5049 8.18906 55.6409 7.63092 55.9131 7.15464C56.1852 6.67092 56.5623 6.29883 57.0444 6.03836C57.5264 5.77046 58.0785 5.6365 58.7005 5.6365C59.5013 5.6365 60.1622 5.82999 60.6831 6.21697C61.2118 6.5965 61.5656 7.13232 61.7444 7.82441H59.9834C59.8901 7.5565 59.7307 7.34813 59.5052 7.19929C59.2875 7.04301 59.0154 6.96487 58.6888 6.96487C58.2223 6.96487 57.853 7.1286 57.5808 7.45604C57.3087 7.77604 57.1726 8.23371 57.1726 8.82906C57.1726 9.41697 57.3087 9.87464 57.5808 10.2021C57.853 10.5221 58.2223 10.6821 58.6888 10.6821C59.3497 10.6821 59.7812 10.3993 59.9834 9.83371H61.7444C61.5656 10.5035 61.2118 11.0356 60.6831 11.43C60.1544 11.8244 59.4935 12.0216 58.7005 12.0216C58.0785 12.0216 57.5264 11.8914 57.0444 11.6309C56.5623 11.363 56.1852 10.9909 55.9131 10.5146C55.6409 10.0309 55.5049 9.46906 55.5049 8.82906ZM69.39 5.73697V11.9212H67.7455V11.1398C67.5356 11.4077 67.2596 11.6198 66.9175 11.776C66.5831 11.9249 66.2177 11.9993 65.8212 11.9993C65.3158 11.9993 64.8687 11.8988 64.4799 11.6979C64.0912 11.4895 63.7841 11.1881 63.5586 10.7937C63.3409 10.3919 63.232 9.91557 63.232 9.36488V5.73697H64.8648V9.14162C64.8648 9.63278 64.9931 10.0123 65.2497 10.2802C65.5063 10.5407 65.8562 10.6709 66.2993 10.6709C66.7503 10.6709 67.1041 10.5407 67.3607 10.2802C67.6172 10.0123 67.7455 9.63278 67.7455 9.14162V5.73697H69.39ZM72.9837 6.69697C73.1936 6.36953 73.4657 6.11278 73.8001 5.92674C74.1422 5.74069 74.5309 5.64767 74.9663 5.64767V7.2886H74.5348C74.0216 7.2886 73.6329 7.40395 73.3685 7.63464C73.112 7.86534 72.9837 8.2672 72.9837 8.84022V11.9212H71.3509V5.73697H72.9837V6.69697ZM82.4223 8.69511C82.4223 8.91836 82.4068 9.11929 82.3757 9.2979H77.6523C77.6911 9.74441 77.8544 10.0942 78.1421 10.3472C78.4298 10.6002 78.7836 10.7267 79.2034 10.7267C79.8099 10.7267 80.2414 10.4774 80.498 9.97883H82.2591C82.0725 10.5742 81.7148 11.0653 81.1861 11.4523C80.6574 11.8319 80.0081 12.0216 79.2384 12.0216C78.6164 12.0216 78.0566 11.8914 77.559 11.6309C77.0691 11.363 76.6843 10.9872 76.4043 10.5035C76.1322 10.0198 75.9962 9.46162 75.9962 8.82906C75.9962 8.18906 76.1322 7.6272 76.4043 7.14348C76.6765 6.65976 77.0575 6.28767 77.5473 6.0272C78.0371 5.76674 78.6008 5.6365 79.2384 5.6365C79.8526 5.6365 80.4008 5.76301 80.8829 6.01604C81.3727 6.26906 81.7498 6.62999 82.0141 7.09883C82.2863 7.56022 82.4223 8.09232 82.4223 8.69511ZM80.7312 8.2486C80.7235 7.84674 80.5718 7.52674 80.2764 7.2886C79.9809 7.04301 79.6194 6.92022 79.1917 6.92022C78.7874 6.92022 78.4453 7.03929 78.1654 7.27743C77.8933 7.50813 77.7261 7.83185 77.6639 8.2486H80.7312Z" fill="white"/>
<path d="M7.27661 9.63991L7.86486 7.883C7.64603 7.73366 7.50326 7.48887 7.50326 7.21202C7.5033 6.75717 7.88848 6.38845 8.36372 6.38845C8.83896 6.38847 9.22416 6.75717 9.2242 7.21202C9.2242 7.48774 9.08255 7.73168 8.86523 7.88117L9.45387 9.63991H7.27661Z" fill="white"/>
</g>
<defs>
<clipPath id="clip0_119_2">
<rect width="83" height="16" fill="white"/>
</clipPath>
</defs>
</svg>
