<svg width="363" height="108" viewBox="0 0 363 108" fill="none" xmlns="http://www.w3.org/2000/svg">
<path d="M245.723 42.0003C248.645 42.0003 250.598 45.0298 249.371 47.6806L228.954 91.7862C228.299 93.2005 226.882 94.1058 225.324 94.1058L218.753 94.1058L242.094 44.3027C242.753 42.8976 244.172 42.0002 245.723 42.0003Z" fill="#1A1A33"/>
<path d="M217.136 42.5708C218.726 42.571 220.166 43.5135 220.802 44.9712L231.065 68.4907L226.54 78.8423L213.33 48.1519C212.194 45.5119 214.13 42.5711 217.004 42.5708H217.136Z" fill="#1A1A33"/>
<path d="M256 31C256 28.7909 257.791 27 260 27H283C285.209 27 287 28.7909 287 31C287 33.2091 285.209 35 283 35H256V31Z" fill="#1A1A33"/>
<path d="M256 48H283C285.209 48 287 49.7909 287 52C287 54.2091 285.209 56 283 56H256V48Z" fill="#1A1A33"/>
<path d="M264 27L264 79L260 79C257.791 79 256 77.2091 256 75L256 31C256 28.7909 257.791 27 260 27L264 27Z" fill="#1A1A33"/>
<path d="M266 35C265.737 35 265.477 35.0518 265.234 35.1523C264.992 35.2529 264.772 35.4003 264.586 35.5859C264.4 35.7716 264.253 35.9918 264.152 36.2344C264.077 36.4164 264.029 36.6084 264.01 36.8037L264 37V35H266Z" fill="#1A1A33"/>
<path d="M264 46C264 46.2626 264.052 46.523 264.152 46.7656C264.253 47.0082 264.4 47.2284 264.586 47.4141C264.772 47.5997 264.992 47.7471 265.234 47.8477C265.416 47.923 265.608 47.971 265.804 47.9902L266 48L264 48L264 46Z" fill="#1A1A33"/>
<path d="M266 56C265.737 56 265.477 56.0518 265.234 56.1523C264.992 56.2529 264.772 56.4003 264.586 56.5859C264.4 56.7716 264.253 56.9918 264.152 57.2344C264.077 57.4164 264.029 57.6084 264.01 57.8037L264 58V56H266Z" fill="#1A1A33"/>
<path d="M193 42C202.941 42 211 50.0589 211 60C211 69.9411 202.941 78 193 78C183.059 78 175 69.9411 175 60C175 50.0589 183.059 42 193 42ZM193 50C187.477 50 183 54.4772 183 60C183 65.5228 187.477 70 193 70C198.523 70 203 65.5228 203 60C203 54.4772 198.523 50 193 50Z" fill="#1A1A33"/>
<path d="M203 59L203 75C203 77.2091 204.791 79 207 79L211 79L211 59L203 59Z" fill="#1A1A33"/>
<path d="M154.5 27C164.717 27 173 35.2827 173 45.5C173 55.7173 164.717 64 154.5 64C144.283 64 136 55.7173 136 45.5C136 35.2827 144.283 27 154.5 27ZM154.5 35C148.701 35 144 39.701 144 45.5C144 51.299 148.701 56 154.5 56C160.299 56 165 51.299 165 45.5C165 39.701 160.299 35 154.5 35Z" fill="#1A1A33"/>
<path d="M144 43L144 75C144 77.2091 142.209 79 140 79L136 79L136 47C136 44.7909 137.791 43 140 43L144 43Z" fill="#1A1A33"/>
<path d="M325 60C325 69.3888 317.389 77 308 77C298.611 77 291 69.3888 291 60V39H295C297.209 39 299 40.7909 299 43V60C299 64.9706 303.029 69 308 69C312.971 69 317 64.9706 317 60V43C317 40.7909 318.791 39 321 39C323.209 39 325 40.7909 325 43V60Z" fill="#1A1A33"/>
<path d="M329 56C329 46.6112 336.611 39 346 39C355.389 39 363 46.6112 363 56L363 77L359 77C356.791 77 355 75.2091 355 73L355 56C355 51.0294 350.971 47 346 47C341.029 47 337 51.0294 337 56L337 73C337 75.2091 335.209 77 333 77C330.791 77 329 75.2091 329 73L329 56Z" fill="#1A1A33"/>
<path d="M54 0C83.8234 0 108 24.1766 108 54C108 83.8234 83.8234 108 54 108H0V54C1.15967e-06 24.1766 24.1766 1.15982e-06 54 0ZM79.5 56.4004C76.8895 56.4004 74.6911 58.1554 74.0156 60.5498C72.6324 64.7766 69.9462 68.4569 66.3428 71.0635C62.7393 73.67 58.4033 75.0688 53.9561 75.0596C49.5086 75.0502 45.1775 73.6334 41.585 71.0117C37.9926 68.39 35.3224 64.6983 33.957 60.4658L33.9141 60.4795C33.1659 58.2042 31.0257 56.5606 28.5 56.5605C25.352 56.5605 22.7998 59.1127 22.7998 62.2607C22.7998 63.3003 23.0793 64.2742 23.5654 65.1133C25.7647 71.1364 29.706 76.3811 34.9004 80.1719C40.4273 84.2052 47.0895 86.386 53.9316 86.4004C60.7738 86.4148 67.4453 84.262 72.9893 80.252C78.3733 76.3574 82.4251 70.9044 84.6035 64.6367C84.9841 63.8725 85.2002 63.0113 85.2002 62.0996C85.2 58.9518 82.6479 56.4004 79.5 56.4004Z" fill="#6953FF"/>
</svg>
